<?xml version="1.0" encoding="UTF-8"?>
<svg width="122px" height="122px" viewBox="0 0 122 122" version="1.1" xmlns="http://www.w3.org/2000/svg" xmlns:xlink="http://www.w3.org/1999/xlink">
    <title>add</title>
    <g id="Page-1" stroke="none" stroke-width="1" fill="none" fill-rule="evenodd">
        <g id="add">
            <rect id="Rectangle" x="1" y="1" width="120" height="120"></rect>
            <g id="Group" transform="translate(0.762000, 0.702000)" fill="#DBB24F" fill-rule="nonzero">
                <path d="M60.236,120.302199 C52.2174134,120.316648 44.2785469,118.710848 36.896,115.581 C33.3281772,114.069534 29.9152257,112.215871 26.705,110.046 C23.5186004,107.890251 20.5448317,105.435829 17.824,102.716 C15.1043287,99.9945726 12.6502321,97.0201231 10.495,93.833 C8.32461159,90.6229191 6.47060301,87.2099492 4.959,83.642 C1.83070936,76.2590407 0.225626313,68.3203592 0.239809884,60.302 C0.225648354,52.2842895 1.8307359,44.346266 4.959,36.964 C6.4707531,33.3967571 8.32475729,29.9844651 10.495,26.775 C12.6502321,23.5878769 15.1043287,20.6134274 17.824,17.892 C20.5448317,15.172171 23.5186004,12.7177487 26.705,10.562 C29.9152257,8.39212932 33.3281772,6.53846566 36.896,5.027 C44.2785469,1.89715229 52.2174134,0.291351553 60.236,0.305800554 C68.2549177,0.291271814 76.1941269,1.89707304 83.577,5.027 C87.1450423,6.53866783 90.5583066,8.39231948 93.769,10.562 C96.9553474,12.7182311 99.9294039,15.1726145 102.651,17.892 C105.371185,20.6132307 107.825632,23.5876982 109.981,26.775 C112.151243,29.9844651 114.005247,33.3967571 115.517,36.964 C118.646056,44.3460557 120.251503,52.2841745 120.237199,60.302 C120.25169,68.3204906 118.646241,76.2593 115.517,83.642 C114.005397,87.2099492 112.151388,90.6229191 109.981,93.833 C107.825632,97.0203018 105.371185,99.9947693 102.651,102.716 C99.9294039,105.435385 96.9553474,107.889769 93.769,110.046 C90.5583066,112.215681 87.1450423,114.069332 83.577,115.581 C76.1941269,118.710927 68.2549177,120.316728 60.236,120.302199 Z M29.504,50.502 C23.9263919,50.5097193 19.407855,55.0313879 19.404,60.609 C19.4095124,66.1847911 23.9282089,70.7034876 29.504,70.709 L50.654,70.709 L50.654,91.852 C50.6595124,97.4277911 55.1782089,101.946488 60.754,101.952 C66.3297911,101.946488 70.8484876,97.4277911 70.854,91.852 L70.854,70.702 L91.987,70.702 C97.565165,70.6986973 102.087729,66.1801599 102.096,60.602 C102.089385,55.0220194 97.5669818,50.5005104 91.987,50.495 L70.854,50.495 L70.854,29.362 C70.8501472,23.7840629 66.3319315,19.261821 60.754,19.253 C55.1760685,19.261821 50.6578528,23.7840629 50.654,29.362 L50.654,50.495 L29.504,50.502 Z" id="Shape"></path>
            </g>
        </g>
    </g>
</svg>