<svg width="0" height="0" class="hidden">
    <symbol id="close" xmlns="http://www.w3.org/2000/svg" viewBox="0 0 182 182"><g fill="currentColor" transform="rotate(45 44.908 110.092)"><path d="M105.9925,51.3957105 L21.3258331,51.3957105 C8.6258331,51.3957105 0.159166445,56.3957105 0.159166445,63.8957105 C0.159166445,71.3957105 8.6258331,76.3957105 21.3258331,76.3957105 L105.9925,76.3957105 C118.6925,76.3957105 127.159166,71.3957105 127.159166,63.8957105 C127.159166,56.3957105 118.6925,51.3957105 105.9925,51.3957105 Z"/><path d="M105.820928,51.2241381 L21.1542607,51.2241381 C8.4542607,51.2241381 -0.0124059537,56.2241381 -0.0124059537,63.7241381 C-0.0124059537,71.2241381 8.4542607,76.2241381 21.1542607,76.2241381 L105.820928,76.2241381 C118.520928,76.2241381 126.987594,71.2241381 126.987594,63.7241381 C126.987594,56.2241381 118.520928,51.2241381 105.820928,51.2241381 Z" transform="rotate(90 63.488 63.724)"/></g></symbol>
</svg>