<?xml version="1.0" encoding="UTF-8"?>
<svg width="100px" height="100px" viewBox="0 0 100 100" version="1.1" xmlns="http://www.w3.org/2000/svg" xmlns:xlink="http://www.w3.org/1999/xlink">
    <title>download-pdf</title>
    <g id="download-pdf" stroke="none" stroke-width="1" fill="none" fill-rule="evenodd">
        <g transform="translate(12.000000, 0.000000)" fill="#DBB24F" fill-rule="nonzero">
            <path d="M57.3922827,27.8330198 C53.8550564,27.8330198 50.9758583,24.5108238 50.9758583,20.4293545 L50.9758583,0 L15.8142689,0 C13.1578814,0 11,2.48789564 11,5.55600015 L11,33.0699051 L49.8800118,33.0699051 C53.522141,33.0699051 56.4750313,36.4781321 56.4750313,40.6816453 L56.4750313,63.9340161 C56.4750313,68.1375293 53.522141,71.5457563 49.8800118,71.5457563 L11,71.5457563 L11,94.4450003 C11,97.5131045 13.1570145,100 15.8142689,100 L71.1857311,100 C73.8447195,100 76,97.5131045 76,94.4450003 L76,27.8330198 L57.3922827,27.8330198 Z" id="Path"></path>
            <path d="M57.0543467,24 L71,24 L54,5 L54,20.4468244 C54,22.4055873 55.3697013,24 57.0543467,24 Z" id="Path"></path>
            <path d="M14.5381952,48 L13,48 L13,52 L14.5381952,52 C15.0766069,52 15.5258603,51.9346898 15.8885523,51.8040693 C16.2495131,51.6734488 16.5247782,51.4584276 16.7152131,51.1610148 C16.9056481,50.8636021 17,50.4737504 17,49.9914594 C17,49.4147199 16.8537113,48.9434816 16.561134,48.5807586 C16.2322009,48.1939211 15.5587535,48 14.5381952,48 Z" id="Path"></path>
            <path d="M27.2680412,48.2666817 C26.7792096,48.0885546 26.1898626,48 25.4965636,48 L24,48 L24,57 L25.7173539,57 C26.0936426,57 26.3891752,56.9877856 26.6030928,56.9633568 C26.8170103,56.9399457 27.0378007,56.8788736 27.2671822,56.782176 C27.4965636,56.6854784 27.6950172,56.5501018 27.8625429,56.3750283 C28.6202749,55.61468 29,54.306718 29,52.4491066 C29,51.1411445 28.8333333,50.1609365 28.5008591,49.5095001 C28.1675257,48.8590817 27.7568729,48.4448089 27.2680412,48.2666817 Z" id="Path"></path>
            <path d="M52,61.6693419 L52,42.3296704 C52,38.8329423 49.4966776,36 46.4096248,36 L5.5903752,36 C2.50244983,36 0,38.8329423 0,42.3296704 L0,61.6693419 C0,65.1660699 2.50244983,68 5.5903752,68 L46.4087523,68 C49.4966776,68 52,65.1660699 52,61.6693419 Z M18.5842674,53.0687739 C17.8714007,53.7444129 16.8086449,54.0822324 15.3977448,54.0822324 L13.2888113,54.0822324 L13.2888113,57.7251513 C13.2888113,58.2457093 13.1797436,58.6408199 12.9633532,58.9104828 C12.7460903,59.1791579 12.4729848,59.3144833 12.1414188,59.3144833 C11.7950198,59.3144833 11.5158064,59.1811335 11.3046513,58.9154217 C11.0926237,58.6487221 10.9861736,58.2575627 10.9861736,57.7429312 L10.9861736,47.823682 C10.9861736,47.2497839 11.1030941,46.8408446 11.3351903,46.5948883 C11.5681589,46.348932 11.9372441,46.2264477 12.4441909,46.2264477 L15.3986173,46.2264477 C16.2729042,46.2264477 16.9438888,46.3025065 17.4150614,46.4546241 C17.8801262,46.600815 18.282368,46.8438079 18.6217867,47.1836029 C18.9594604,47.5224102 19.2168602,47.938264 19.3922411,48.4301766 C19.5684946,48.9220892 19.6557487,49.4752439 19.6557487,50.0896407 C19.6540037,51.399432 19.2980066,52.3921472 18.5842674,53.0687739 Z M31.1305457,54.7410791 C31.01188,55.3791826 30.8277737,55.9540684 30.5799718,56.4657365 C30.3321699,56.9774046 30.0136922,57.4357328 29.6262837,57.8397334 C29.3217666,58.1498951 28.9884556,58.3988147 28.6263508,58.5855044 C28.2633734,58.7731819 27.8750923,58.9045561 27.4597624,58.9806149 C27.0426875,59.0566737 26.5732599,59.095197 26.05148,59.095197 L23.0508088,59.095197 C22.6319887,59.095197 22.3161286,59.024077 22.1049735,58.8798617 C21.8938183,58.7356464 21.7550842,58.5341401 21.6905161,58.2743549 C21.6250755,58.0145697 21.5927915,57.6767502 21.5927915,57.2608964 L21.5927915,47.8246697 C21.5927915,47.262625 21.7036043,46.856649 21.9261024,46.604766 C22.1486006,46.3538708 22.5080878,46.2274355 23.0036916,46.2274355 L26.0043627,46.2274355 C26.7852876,46.2274355 27.4545271,46.3094209 28.0129539,46.4733918 C28.5713807,46.6373627 29.0774549,46.9445611 29.5329217,47.3949871 C30.7169609,48.5417953 31.3085442,50.2862082 31.3085442,52.627238 C31.3085442,53.3977034 31.2492114,54.1029757 31.1305457,54.7410791 Z M40.9422781,47.9599951 C40.765152,48.1447092 40.491174,48.2365724 40.1247064,48.2365724 L35.5883616,48.2365724 L35.5883616,51.5288307 L39.3804282,51.5288307 C39.73119,51.5288307 39.9938251,51.6177306 40.1665884,51.7965181 C40.3402242,51.9753056 40.4266058,52.2133597 40.4266058,52.5116681 C40.4266058,52.8099766 40.3384791,53.0470429 40.1630982,53.2228671 C39.9877173,53.3986912 39.7268273,53.4866033 39.3804282,53.4866033 L35.5883616,53.4866033 L35.5883616,57.7261391 C35.5883616,58.2644771 35.481039,58.6645265 35.2655212,58.9243116 C35.0517484,59.1850846 34.7760252,59.315471 34.4409692,59.315471 C34.0998054,59.315471 33.8214645,59.1840968 33.6068193,58.9203606 C33.3930465,58.6566243 33.2857239,58.2585505 33.2857239,57.7271268 L33.2857239,47.823682 C33.2857239,47.4493147 33.3345862,47.1440919 33.4331835,46.9060378 C33.5317806,46.6689715 33.6844755,46.4961107 33.894758,46.388443 C34.1024229,46.2797876 34.3711658,46.22546 34.696624,46.22546 L40.1247064,46.22546 C40.491174,46.22546 40.765152,46.3173231 40.9422781,46.5020373 C41.1220216,46.6867515 41.2101671,46.9277689 41.2101671,47.2260773 C41.2110209,47.5313002 41.1220216,47.7752809 40.9422781,47.9599951 Z" id="Shape"></path>
        </g>
    </g>
</svg>