<?xml version="1.0" encoding="UTF-8"?>
<svg width="121px" height="108px" viewBox="0 0 121 108" version="1.1" xmlns="http://www.w3.org/2000/svg" xmlns:xlink="http://www.w3.org/1999/xlink">
    <title>download</title>
    <g id="Page-1" stroke="none" stroke-width="1" fill="none" fill-rule="evenodd">
        <g id="download" fill="#DBB24F" fill-rule="nonzero">
            <path d="M113.146466,69.6602799 C108.657583,69.6602799 105.664993,72.6528692 105.664993,77.1417532 L105.664993,92.1046998 L15.8873135,92.1046998 L15.8873135,77.1417532 C15.8873135,72.6528692 12.8947241,69.6602799 8.40584014,69.6602799 C3.91695615,69.6602799 0.92436683,72.6528692 0.92436683,77.1417532 L0.92436683,99.5861731 C0.92436683,104.075057 3.91695615,107.067646 8.40584014,107.067646 L113.146466,107.067646 C117.63535,107.067646 120.62794,104.075057 120.62794,99.5861731 L120.62794,77.1417532 C120.62794,72.6528692 117.63535,69.6602799 113.146466,69.6602799 Z" id="Shape"></path>
            <path d="M60.7761533,0.641806943 C55.0650445,0.641806943 51.2576386,4.44921284 51.2576386,10.1603217 L51.2576386,52.993638 L48.4020841,50.1380836 C44.5946783,46.3306777 38.8835694,46.3306777 35.0761635,50.1380836 C31.2687576,53.9454895 31.2687576,59.6565984 35.0761635,63.4640043 L52.20949,80.5973308 C54.113193,84.4047367 56.9687474,86.3084396 60.7761533,86.3084396 C64.5835592,86.3084396 67.4391136,84.4047367 69.3428166,81.5491823 L86.4761431,64.4158557 C90.283549,60.6084498 90.283549,54.897341 86.4761431,51.0899351 C82.6687372,47.2825292 76.9576284,47.2825292 73.1502225,51.0899351 L70.2946681,52.993638 L70.2946681,10.1603217 C70.2946681,4.44921284 66.4872622,0.641806943 60.7761533,0.641806943 Z" id="Shape"></path>
        </g>
    </g>
</svg>