<?xml version="1.0" encoding="UTF-8"?>
<svg width="122px" height="122px" viewBox="0 0 122 122" version="1.1" xmlns="http://www.w3.org/2000/svg" xmlns:xlink="http://www.w3.org/1999/xlink">
    <title>edit</title>
    <g id="Page-1" stroke="none" stroke-width="1" fill="none" fill-rule="evenodd">
        <g id="edit" fill="#DBB24F" fill-rule="nonzero">
            <path d="M117.922671,34.7253725 C120.529556,31.087628 121.98168,26.7709039 121.986636,22.2063771 C121.986636,16.4077925 119.731631,10.9511758 115.628017,6.8574742 C107.931264,-0.8293674 95.9078738,-1.4488743 87.4280634,4.8552279 C87.2000849,4.96426112 86.9770624,5.0881625 86.7887323,5.27649259 C86.7243036,5.34092131 86.6995233,5.42021819 86.6499627,5.48960297 C86.0899285,5.94556004 85.4952019,6.3370884 84.96986,6.8574742 L77.1145126,14.7177777 C77.1046005,14.7276898 77.1046005,14.737602 77.0946883,14.7475141 L20.7443408,71.0681252 C20.5064502,71.3060159 20.3280322,71.583555 20.2090869,71.8858743 L0.72683393,118.52731 C0.340261625,119.454092 0.548415943,120.519644 1.25713184,121.233316 C1.73291313,121.709097 2.3672882,121.9569 3.01157537,121.9569 C3.33371896,121.9569 3.6608186,121.892471 3.96313797,121.763614 L50.5996173,102.276405 C50.9068927,102.157459 51.1794758,101.974085 51.4173664,101.741151 L107.723109,45.4254957 C107.742934,45.4106275 107.767714,45.4007154 107.782582,45.3858472 L115.623061,37.5156316 C116.01459,37.1241032 116.306997,36.6681462 116.663833,36.2518375 C116.901724,36.1378483 117.134658,36.0040348 117.327944,35.8107486 C117.63522,35.5034732 117.813638,35.1218569 117.922671,34.7253725 Z M88.4192745,10.4060097 L112.06957,34.0563051 L106.895448,39.2502509 L83.2352407,15.5999556 L88.4192745,10.4060097 Z M30.4929014,104.476893 L18.0185105,92.0025024 C17.8202683,91.8042601 17.5873337,91.6803588 17.349443,91.5614134 L23.3561819,77.1838973 L45.3015943,99.1293097 L30.9290343,105.136049 C30.8100889,104.903114 30.6861875,104.670179 30.4929014,104.476893 Z" id="Shape"></path>
        </g>
    </g>
</svg>