<svg xmlns="http://www.w3.org/2000/svg">
    <symbol id="endodontie" xmlns="http://www.w3.org/2000/svg" viewBox="0 0 100 100">
        <g fill="none" fill-rule="evenodd">
            <path fill="#DBB24F"
                  d="M99.9865571,49.9932786 C99.9865571,77.6034354 77.6034354,99.9858103 49.9932786,99.9858103 C22.3831217,99.9858103 -1.6980857e-14,77.6034354 -1.6980857e-14,49.9932786 C-1.6980857e-14,22.3823749 22.3831217,-1.6980857e-14 49.9932786,-1.6980857e-14 C77.6034354,-1.6980857e-14 99.9865571,22.3823749 99.9865571,49.9932786"/>
            <path fill="#D8C79E"
                  d="M78.4645258,63.6534727 C77.3890963,57.9208364 72.7610157,39.3106796 66.0022405,39.3106796 L33.6079164,39.3106796 C26.8491412,39.3106796 22.5003734,57.0776699 21.4884242,63.6534727 C20.4772218,70.2292756 23.9895444,75.8304705 30.7483196,75.8304705 L69.6026886,75.8304705 C76.3614638,75.8304705 79.5392084,69.386109 78.4645258,63.6534727"/>
            <path fill="#F3F1F2"
                  d="M65.8043316,30.8939507 C65.7168783,29.2621359 64.8132935,27.1822255 63.9962659,26.2292756 C63.1792382,25.2763256 61.6549664,24.3711725 60.5937267,24.2083645 C59.5317401,24.0455564 57.3592233,24.0911128 55.7401046,24.3129201 L49.9925317,25.0955937 L44.2449589,24.3129201 C42.6258402,24.0911128 40.4533234,24.0455564 39.39059,24.2083645 C38.3293503,24.3711725 36.8058252,25.2763256 35.9887976,26.2292756 C35.17177,27.1822255 34.2688574,29.2621359 34.1807319,30.8939507 C34.0246453,33.78118 34.2165795,38.3547423 36.2845407,42.5511576 C36.2845407,42.5511576 37.764003,45.5100822 37.764003,50.2442121 C37.764003,53.7057506 39.0836445,61.1702763 40.7961165,64.4906647 C41.5444361,65.9432412 43.7886482,65.665422 44.2434653,64.0948469 C45.8334578,58.592233 46.9678865,44.7318895 49.9917849,44.7707244 C53.0149365,44.7318895 54.1486184,58.592233 55.7415982,64.0948469 C56.1964152,65.665422 58.4413742,65.9432412 59.1896938,64.4906647 C60.9021658,61.1702763 62.2218073,53.7072442 62.2218073,50.2442121 C62.2218073,45.5100822 63.7012696,42.5511576 63.7012696,42.5511576 C65.7684839,38.3547423 65.9604182,33.78118 65.8043316,30.8939507"/>
            <line x1="42.505" x2="42.505" y1="46.326" y2="62.906" stroke="#979797" stroke-linecap="square"
                  stroke-width="2"/>
            <line x1="57.665" x2="57.665" y1="46.326" y2="62.906" stroke="#979797" stroke-linecap="square"
                  stroke-width="2"/>
        </g>
    </symbol>

    <symbol id="implant-dentaire" xmlns="http://www.w3.org/2000/svg" viewBox="0 0 100 100">
        <g fill="none" fill-rule="evenodd">
            <path fill="#DBB24F"
                  d="M99.9859597,49.9932786 C99.9859597,77.6034354 77.6035848,99.9858103 49.9929798,99.9858103 C22.382599,99.9858103 0,77.6034354 0,49.9932786 C0,22.3823749 22.382599,-1.6980857e-14 49.9929798,-1.6980857e-14 C77.6035848,-1.6980857e-14 99.9859597,22.3823749 99.9859597,49.9932786"/>
            <path fill="#D8C79E"
                  d="M78.4639283,63.6534727 C77.3884989,57.9208364 72.7602689,39.3106796 66.0014937,39.3106796 L33.6075429,39.3106796 C26.8486184,39.3106796 22.5,57.0776699 21.4883495,63.6534727 C20.476475,70.2292756 23.9892457,75.8304705 30.748245,75.8304705 L69.6022405,75.8304705 C76.3608663,75.8304705 79.5393577,69.386109 78.4639283,63.6534727"/>
            <path fill="#C3C3BE"
                  d="M50.040478,42.5840179 L50.040478,72.6796117 C50.3392084,72.4757282 58.7962659,67.5175504 59.7897685,64.9111277 C60.8041822,62.2486931 62.7258402,44.8200149 62.7258402,44.8200149 L50.040478,42.5840179"/>
            <path fill="#CED2CC"
                  d="M50.0119492,42.5825243 L49.9943241,42.5825243 L37.2864824,44.8200149 C37.2864824,44.8200149 39.1989544,62.2486931 40.2135176,64.9111277 C41.228006,67.5728155 49.9907394,72.6870799 49.9907394,72.6870799 L49.9932786,72.6848394 L50.0120239,72.6870799 C50.0120239,72.6870799 49.9657954,72.6840926 50.040478,72.6796117 L50.040478,42.5840179 L50.0119492,42.5825243"/>
            <path fill="#F3F1F2"
                  d="M63.7015683,42.5556385 C65.7686333,38.3592233 65.9608663,33.7916355 65.8048544,30.9036594 C65.7170276,29.2718447 64.8135176,27.1956684 63.9968633,26.2419716 C63.1794623,25.2890217 61.6553398,24.3853622 60.5941001,24.2225541 C59.5322629,24.0597461 57.3598208,24.1067961 55.7404033,24.3278566 L49.9932039,25.1112771 L44.2457804,24.3286034 C42.6260642,24.1067961 40.4537715,24.0612397 39.3911875,24.2240478 C38.3295743,24.3868559 36.806348,25.292009 35.9890217,26.2449589 C35.1724421,27.1986557 34.2691561,29.2778193 34.1812547,30.9096341 C34.025168,33.7968633 34.217177,38.3592233 36.2850635,42.5556385 C36.2850635,42.5556385 36.5718447,43.1194922 36.8929052,44.1650485 L63.093876,44.1650485 C63.4148618,43.1194922 63.7015683,42.5556385 63.7015683,42.5556385"/>
            <path fill="#F3F1F2"
                  d="M63.7073936,44.5309933 C63.7073936,44.2464526 63.476475,44.0156833 63.1917102,44.0156833 L36.6651232,44.0156833 C36.3803585,44.0156833 36.1495146,44.2464526 36.1495146,44.5309933 L36.1495146,44.545183 C36.1495146,44.8304705 36.3803585,45.0612397 36.6651232,45.0612397 L63.1917102,45.0612397 C63.476475,45.0612397 63.7073936,44.8304705 63.7073936,44.545183 L63.7073936,44.5309933"/>
            <path fill="#A8A9A5"
                  d="M63.1729806 50.510829C63.1365198 50.7804332 57.098581 50.1896938 49.6865571 49.1911875 42.2746079 48.1934279 36.2954444 47.1650485 36.3315757 46.8954444 36.3680358 46.626587 42.406124 47.2173264 49.8179985 48.2150859 57.2300224 49.2135922 63.209186 50.2412248 63.1729806 50.510829M63.1729806 54.6669156C63.1365198 54.9365198 57.098581 54.3457804 49.6865571 53.3472741 42.2746079 52.3487677 36.2954444 51.3211352 36.3315757 51.051531 36.3680358 50.7819268 42.406124 51.3726662 49.8179985 52.3711725 57.2300224 53.3696789 63.209186 54.3973114 63.1729806 54.6669156M62.5068839 58.7326363C62.4716206 58.9940254 56.7327857 58.4361464 49.6887229 57.4876774 42.6446602 56.5384615 36.9627334 55.557879 36.9977464 55.2972367 37.0330097 55.0358476 42.7718447 55.5937267 49.8159074 56.5429425 56.8599701 57.4914115 62.5418969 58.471994 62.5068839 58.7326363M62.0632413 62.8289768C62.0315907 63.0627334 56.4943988 62.5093353 49.695295 61.5937267 42.8962659 60.678118 37.4100075 59.7460792 37.4413144 59.5130695 37.4729649 59.2793129 43.0102315 59.8319642 49.809186 60.7483196 56.6082898 61.6639283 62.0945482 62.5952203 62.0632413 62.8289768M60.1997245 66.7341299C60.1749066 66.9171023 55.4775205 66.4361464 49.7076176 65.6587005 43.9377894 64.8812547 39.2802838 64.103062 39.3048317 63.9200896 39.3297237 63.7363704 44.0271098 64.2173264 49.7970127 64.9947722 55.5668409 65.7722181 60.2243465 66.5504108 60.1997245 66.7341299"/>
        </g>
    </symbol>

    <symbol id="parodontologie" xmlns="http://www.w3.org/2000/svg" viewBox="0 0 100 100">
        <g fill="none">
            <path fill="#DBB24F"
                  d="M99.9865571,49.9930545 C99.9865571,77.6034354 77.6034354,99.9858103 49.9932786,99.9858103 C22.3831217,99.9858103 -7.10542736e-15,77.6034354 -7.10542736e-15,49.9930545 C-7.10542736e-15,22.3826736 22.3831217,0 49.9932786,0 C77.6034354,0 99.9865571,22.3826736 99.9865571,49.9930545"/>
            <path fill="#F3F1F2"
                  d="M42.5429425,26.475056 C43.3539955,25.1598954 45.0448096,23.8421957 46.1538462,23.4200896 C47.2636296,22.9987304 48.9387603,22.9367438 49.8932039,23.281404 C50.8483943,23.6262883 52.631068,24.6473488 53.8752801,25.5637043 L58.2927558,28.8132935 L63.4189694,30.7630321 C64.8640777,31.3118745 66.6878267,32.256236 67.4966393,32.8722181 C68.304705,33.4876027 69.1598208,34.9281553 69.4070202,36.0887976 C69.6542196,37.2498133 69.4630321,39.3847647 68.798357,40.7792382 C67.6213592,43.2471994 65.3935773,46.9571322 61.7781927,49.506124 C61.7781927,49.506124 59.2113518,51.2935026 57.0702016,55.2238984 C55.5041075,58.0981329 51.0328603,63.6986557 48.1090366,65.6804332 C46.8304705,66.5480209 45.0933532,65.3018671 45.4256908,63.7925317 C46.5944735,58.504481 51.9223301,46.4846901 49.3943241,45.148469 C46.9021658,43.7494399 39.690814,54.7431665 35.879761,58.5914862 C34.7916355,59.6892457 32.8020911,58.9050784 32.8379388,57.3604929 C32.9178491,53.8293503 35.1979089,47.0363704 36.7647498,44.1608663 C38.9058999,40.2307692 39.0164302,37.1049291 39.0164302,37.1049291 C39.1986557,32.6853622 41.1075429,28.8017177 42.5429425,26.475056"/>
            <path fill="#D8C79E"
                  d="M70.3532487,48.1121733 C66.0866318,46.0476475 50.6713966,67.9317401 47.78118,68.7575803 C44.8909634,69.5834205 42.1381628,66.8306945 42.9634055,64.490814 C43.7893951,62.1510082 44.4779686,58.0219567 41.862584,56.6455564 C39.2479462,55.2692308 34.8431665,62.9768484 31.5399552,62.9768484 C28.2367438,62.9768484 30.1635549,55.1315907 31.5399552,51.8283047 C32.9163555,48.5250934 31.95295,45.2218073 28.6497386,44.8088872 C28.6430172,44.8079164 28.6355489,44.807991 28.6288275,44.8073936 C28.4234503,44.8398805 28.2210605,44.8914862 28.0209111,44.9601942 C25.5765497,46.2944735 21.6303211,55.8643017 19.4174757,61.6752054 C19.004481,63.439059 18.7057506,65.0127707 18.5257655,66.1799851 C17.6377894,71.9497386 20.7199403,76.9200896 26.6504854,76.9200896 L73.65646,76.9200896 C79.5862584,76.9200896 82.3749066,71.2097087 81.4316654,66.1799851 C81.2128454,65.0149365 80.8274832,63.239283 80.2897685,61.2007468 C77.3510082,53.756236 72.9559373,49.3713966 70.3532487,48.1121733"/>
        </g>
    </symbol>

    <symbol id="soins-esthetique" xmlns="http://www.w3.org/2000/svg" viewBox="0 0 100 100">
        <g fill="none">
            <path fill="#DBB24F"
                  d="M99.9865571,49.9930545 C99.9865571,77.6034354 77.6034354,99.9858103 49.9932786,99.9858103 C22.3831217,99.9858103 -1.42108547e-14,77.6034354 -1.42108547e-14,49.9930545 C-1.42108547e-14,22.3826736 22.3831217,0 49.9932786,0 C77.6034354,0 99.9865571,22.3826736 99.9865571,49.9930545"/>
            <path fill="#D8C79E"
                  d="M78.4645258,68.3654966 C77.3890963,62.6328603 72.7602689,43.9849141 66.0014937,43.9849141 L33.6079164,43.9849141 C26.8491412,43.9849141 22.5003734,61.7893951 21.4884242,68.3654966 C20.476475,74.9417476 23.9895444,80.579537 30.7483196,80.579537 L69.6026886,80.579537 C76.3614638,80.579537 79.5392084,74.0979836 78.4645258,68.3654966"/>
            <path fill="#F3F1F2"
                  d="M65.8050037,35.5878267 C65.7169529,33.9560119 64.8140403,31.8766243 63.996938,30.9231516 C63.1799851,29.9704257 61.6557132,29.0653473 60.5944735,28.9023898 C59.5324869,28.739283 57.3599701,28.7854369 55.7408514,29.0069455 L49.9932786,29.7899178 L44.2457058,29.0069455 C42.626587,28.7854369 40.4540702,28.739283 39.3913368,28.9023898 C38.3300971,29.0653473 36.8065721,29.9704257 35.9895444,30.9231516 C35.1725168,31.8766243 34.2696042,33.9560119 34.1814787,35.5878267 C34.0253921,38.4753547 34.2173264,43.048469 36.2852875,47.245407 C36.2852875,47.245407 37.7647498,50.2043316 37.7647498,54.9382375 C37.7647498,58.4000747 39.0836445,65.8646004 40.7961165,69.1847647 C41.545183,70.63764 43.7893951,70.3592233 44.2442121,68.7888723 C45.8342046,63.2861837 46.9678865,49.4262883 49.9925317,49.4646004 C53.0156833,49.4262883 54.1493652,63.2861837 55.742345,68.7888723 C56.1971621,70.3592233 58.442121,70.63764 59.1904406,69.1847647 C60.9029126,65.8646004 62.2225541,58.401643 62.2225541,54.9382375 C62.2225541,50.2043316 63.7020164,47.245407 63.7020164,47.245407 C65.7692308,43.048469 65.961165,38.4753547 65.8050037,35.5878267"/>
            <path fill="#8ECEE6"
                  d="M37.545183 34.224944C37.7311426 32.0477222 39.4652726 30.3135922 41.6430172 30.1281553 39.4540702 29.9418969 37.7132188 28.19059 37.5429425 25.9977595 37.339059 28.1982823 35.5511576 29.9386856 33.3300971 30.0696042L33.2912621 30.1085885 33.2994772 30.1171023C35.5459298 30.2344287 37.3554892 31.9984317 37.545183 34.224944M49.4062733 41.2144884C49.592233 39.0373413 51.326363 37.3031367 53.5033607 37.1176998 51.3151606 36.9314414 49.5743092 35.1801344 49.4040329 32.987304 49.2001494 35.1878267 47.4122479 36.92823 45.1911875 37.0592233L45.1523525 37.0982076 45.1613144 37.1066468C47.4070202 37.2241225 49.2165795 38.9881255 49.4062733 41.2144884M33.6960418 26.5869305C33.8364451 24.9365198 35.1516057 23.6219567 36.8020911 23.481404 35.1426438 23.3401792 33.8237491 22.0126214 33.6938013 20.3504854 33.5392084 22.0184466 32.184466 23.3377894 30.5011202 23.4370426L30.4712472 23.4665422 30.4779686 23.4730396C32.1807319 23.5620612 33.5519044 24.8992532 33.6960418 26.5869305M40.4174757 23.7062733C40.5138163 22.5722928 41.4174757 21.6690814 42.5511576 21.5725168 41.4115011 21.4755041 40.5048544 20.5633308 40.4159821 19.4212099 40.3099328 20.567289 39.3786408 21.4738611 38.2218073 21.5419716L38.201643 21.5622853 38.206124 21.5667662C39.3764003 21.6279313 40.3188947 22.5466766 40.4174757 23.7062733"/>
        </g>
    </symbol>

    <symbol id="chirurgie-buccale" xmlns="http://www.w3.org/2000/svg" viewBox="0 0 100 100">
        <g fill="none" fill-rule="evenodd">
            <path fill="#DBB24F"
                  d="M99.9865571,49.9930545 C99.9865571,77.6034354 77.6034354,99.9858103 49.9932786,99.9858103 C22.3831217,99.9858103 -1.6980857e-14,77.6034354 -1.6980857e-14,49.9930545 C-1.6980857e-14,22.3826736 22.3831217,0 49.9932786,0 C77.6034354,0 99.9865571,22.3826736 99.9865571,49.9930545"/>
            <path fill="#D8C79E"
                  d="M58.5629079,69.7733137 C57.3780167,70.5531378 56.2998762,69.6928234 56.1089035,69.4675865 C56.0699793,69.4216784 56.0778309,69.4431693 55.9849137,69.3068506 C55.8919965,69.170532 55.7932898,68.9901342 55.742345,68.7888723 C55.6295155,68.3431292 55.4547268,67.7927403 55.3028898,67.0505252 C54.9678915,65.412974 54.55882,63.2478702 54.1421726,60.7501602 C53.2577145,55.4480287 51.9944588,49.7660422 50.2192821,49.4697425 C49.4809357,49.3465031 48.628127,50.1284494 48.0118172,51.7046246 C47.0291689,54.2176882 46.2664993,58.9242461 45.6119173,62.7750995 C44.9375928,66.7420965 44.161263,70.1426073 42.6261195,70.1403286 C38.735281,70.1345531 37.6323004,55.2536628 37.6323004,52.3632969 C37.6323004,49.4729309 31.9496676,49.1821509 28.6464562,48.7692308 C28.6397348,48.7682599 28.6322665,48.7683346 28.6255451,48.7677371 C28.420168,48.800224 28.2177781,48.8518297 28.0176287,48.9205377 C25.5732673,50.254817 21.6270387,59.8246453 19.4141933,65.6355489 C19.0011986,67.3994025 18.7024682,68.9731143 18.5224831,70.1403286 C17.634507,75.9100822 20.7166579,80.8804332 26.6472031,80.8804332 L73.6531777,80.8804332 C79.582976,80.8804332 82.3716243,75.1700523 81.428383,70.1403286 C81.209563,68.9752801 80.8242008,67.1996266 80.2864861,65.1610904 C78.1534518,59.7576564 72.6953294,50.060141 72.5851141,50 C70.9868529,49.127879 62.4405169,48.2445747 61.8798519,54.0930433 C61.3191869,59.9415119 59.7477991,68.9934895 58.5629079,69.7733137 Z"/>
            <path fill="#F3F1F2"
                  d="M65.7339406,22.9543942 C65.6458898,21.3225795 64.7429772,19.2431919 63.9258749,18.2897191 C63.1089219,17.3369932 61.5846501,16.4319148 60.5234104,16.2689574 C59.4614238,16.1058506 57.288907,16.1520044 55.6697882,16.373513 L49.9222154,17.1564854 L44.1746426,16.373513 C42.5555239,16.1520044 40.3830071,16.1058506 39.3202737,16.2689574 C38.259034,16.4319148 36.7355089,17.3369932 35.9184813,18.2897191 C35.1014537,19.2431919 34.198541,21.3225795 34.1104156,22.9543942 C33.954329,25.8419223 34.1462632,30.4150365 36.2142244,34.6119745 C36.2142244,34.6119745 37.6936867,37.5708991 37.6936867,42.304805 C37.6936867,45.7666422 39.0125814,53.231168 40.7250534,56.5513323 C41.4741198,58.0042075 43.7183319,57.7257908 44.173149,56.1554398 C45.7631415,50.6527512 46.8968233,36.7928558 49.9214686,36.831168 C52.9446202,36.7928558 54.0783021,50.6527512 55.6712819,56.1554398 C56.1260989,57.7257908 58.3710579,58.0042075 59.1193775,56.5513323 C60.8318495,53.231168 62.151491,45.7682105 62.151491,42.304805 C62.151491,37.5708991 63.6309533,34.6119745 63.6309533,34.6119745 C65.6981676,30.4150365 65.8901019,25.8419223 65.7339406,22.9543942"/>
        </g>
    </symbol>

    <symbol id="phone" xmlns="http://www.w3.org/2000/svg" viewBox="0 0 20 20">
        <g fill="none">
            <path fill="currentColor"
                  d="M19.9973114,9.99865572 C19.9973114,15.5206871 15.5206871,19.9971621 9.99865572,19.9971621 C4.47662434,19.9971621 -2.84217094e-15,15.5206871 -2.84217094e-15,9.99865572 C-2.84217094e-15,4.47647498 4.47662434,-2.84217094e-15 9.99865572,-2.84217094e-15 C15.5206871,-2.84217094e-15 19.9973114,4.47647498 19.9973114,9.99865572"/>
            <path fill="#fff"
                  d="M16.0348999,12.6449533 L13.2348661,11.4449384 C12.9891446,11.3402174 12.7037863,11.4105379 12.5348577,11.6174405 L11.2948428,13.1324593 C9.34875468,12.2148973 7.78260106,10.6487431 6.86503936,8.70265438 L8.38005762,7.462639 C8.5874089,7.29399436 8.65780992,7.00830892 8.5525597,6.76263032 L7.35254524,3.96259558 C7.2365641,3.6966888 6.94792162,3.55079308 6.66503696,3.61509126 L4.06500562,4.21509872 C3.79275516,4.2779671 3.6,4.52044088 3.6,4.79985596 C3.6,11.2124355 8.79756266,16.4000001 15.2001398,16.4000001 C15.4796483,16.4001791 15.7222575,16.2073358 15.7851469,15.9349941 L16.3851541,13.3349619 C16.4490342,13.050719 16.3020522,12.7611612 16.0348999,12.6449533 L16.0348999,12.6449533 Z"/>
        </g>
    </symbol>

    <symbol id="plaquette" xmlns="http://www.w3.org/2000/svg" viewBox="0 0 20 20">
        <g fill="none">
            <path fill="currentColor"
                  d="M19.9973114,9.99865572 C19.9973114,15.5206871 15.5206871,19.9971621 9.99865572,19.9971621 C4.47662434,19.9971621 -2.84217094e-15,15.5206871 -2.84217094e-15,9.99865572 C-2.84217094e-15,4.47647498 4.47662434,-2.84217094e-15 9.99865572,-2.84217094e-15 C15.5206871,-2.84217094e-15 19.9973114,4.47647498 19.9973114,9.99865572"/>
            <path fill="#FFF"
                  d="M14.6933333,3.08948756 L13.6333333,4.33185686 L12.1316667,3.08948756 C11.9749403,2.97023408 11.758393,2.97023408 11.6016667,3.08948756 L10.1,4.33185686 L8.59833334,3.08948756 C8.44160696,2.97023408 8.22505972,2.97023408 8.06833334,3.08948756 L6.56666666,4.33185686 L5.50666666,3.08948756 C5.2140625,2.87040904 4.8,3.07839498 4.8,3.44445022 L4.8,16.7555498 C4.8,17.121605 5.2140625,17.329591 5.50666666,17.1105124 L6.56666666,15.8681431 L8.06833334,17.1105124 C8.22505972,17.2297659 8.44160696,17.2297659 8.59833334,17.1105124 L10.1,15.8681431 L11.6016667,17.1105124 C11.758393,17.2297659 11.9749403,17.2297659 12.1316667,17.1105124 L13.6333333,15.8681431 L14.6933333,17.1105124 C14.9831771,17.329591 15.4,17.121605 15.4,16.7555498 L15.4,3.44445022 C15.4,3.07839498 14.9859375,2.87040904 14.6933333,3.08948756 Z M13.6,13 C13.6,13.11 13.5015625,13.2 13.38125,13.2 L6.81875,13.2 C6.6984375,13.2 6.6,13.11 6.6,13 L6.6,12.6 C6.6,12.49 6.6984375,12.4 6.81875,12.4 L13.38125,12.4 C13.5015625,12.4 13.6,12.49 13.6,12.6 L13.6,13 Z M13.6,10.2 C13.6,10.31 13.5015625,10.4 13.38125,10.4 L6.81875,10.4 C6.6984375,10.4 6.6,10.31 6.6,10.2 L6.6,9.8 C6.6,9.69 6.6984375,9.6 6.81875,9.6 L13.38125,9.6 C13.5015625,9.6 13.6,9.69 13.6,9.8 L13.6,10.2 Z M13.6,7.6 C13.6,7.71 13.5015625,7.8 13.38125,7.8 L6.81875,7.8 C6.6984375,7.8 6.6,7.71 6.6,7.6 L6.6,7.2 C6.6,7.09 6.6984375,7 6.81875,7 L13.38125,7 C13.5015625,7 13.6,7.09 13.6,7.2 L13.6,7.6 Z"/>
        </g>
    </symbol>

    <symbol id="questionnaire" xmlns="http://www.w3.org/2000/svg" viewBox="0 0 24 24">
        <g fill="none" fill-rule="evenodd" transform="translate(1 1)">
            <circle cx="11" cy="11" r="11" stroke="currentColor" stroke-width="2"/>
            <path fill="currentColor" fill-rule="nonzero"
                  d="M7.40872383,14.9015625 C7.51456595,14.7801977 7.56988698,14.6209811 7.56279953,14.458125 L7.56279953,14.3546875 C7.56279953,14.125 7.44610315,14 7.2181805,14 L5.4859684,14 C5.3516983,14 5.2428509,14.1119288 5.2428509,14.25 L5.2428509,14.75 C5.2428509,14.8880712 5.3516983,15 5.4859684,15 L6.17976493,15 C6.06186925,15.1221282 5.950287,15.2505339 5.84547838,15.3846875 L5.67499223,15.6034375 C5.5534335,15.761875 5.51544638,15.92 5.58990113,16.0684375 L5.62181028,16.12875 C5.71297935,16.30875 5.8129614,16.375 5.99408395,16.375 L6.13782715,16.375 C6.4517526,16.375 6.62223875,16.45125 6.62223875,16.6590625 C6.62223875,16.8065625 6.49460208,16.9159375 6.18584285,16.9159375 C6.02451438,16.9146278 5.86492543,16.8815306 5.71571443,16.8184375 C5.51848535,16.6971875 5.3589395,16.7090625 5.2416353,16.9159375 L5.07175698,17.206875 C4.95870733,17.3984375 4.97481388,17.573125 5.15168185,17.705 C5.38598633,17.8515625 5.77102365,18 6.27610023,18 C7.3142119,18 7.75,17.2890625 7.75,16.62125 C7.7490883,16.171875 7.47284608,15.69125 6.87690433,15.53125 L7.40872383,14.9015625 Z M17.5909091,5 L9.40909091,5 C9.18315624,5 9,5.22385762 9,5.5 L9,6.5 C9,6.77614237 9.18315624,7 9.40909091,7 L17.5909091,7 C17.8168438,7 18,6.77614237 18,6.5 L18,5.5 C18,5.22385762 17.8168438,5 17.5909091,5 Z M17.5909091,10 L9.40909091,10 C9.18315624,10 9,10.2238576 9,10.5 L9,11.5 C9,11.7761424 9.18315624,12 9.40909091,12 L17.5909091,12 C17.8168438,12 18,11.7761424 18,11.5 L18,10.5 C18,10.2238576 17.8168438,10 17.5909091,10 Z M17.5909091,15 L9.40909091,15 C9.18315624,15 9,15.2238576 9,15.5 L9,16.5 C9,16.7761424 9.18315624,17 9.40909091,17 L17.5909091,17 C17.8168438,17 18,16.7761424 18,16.5 L18,15.5 C18,15.2238576 17.8168438,15 17.5909091,15 Z M5.25,8 L7.25,8 C7.38807118,8 7.5,7.88807118 7.5,7.75 L7.5,7.25 C7.5,7.11192882 7.38807118,7 7.25,7 L6.75,7 L6.75,4.25 C6.75,4.11192882 6.63807118,4 6.5,4 L5.75,4 C5.65549653,4.00016868 5.56916522,4.05361185 5.526875,4.138125 L5.276875,4.638125 C5.23813057,4.7155515 5.24220493,4.80751255 5.28764485,4.88120925 C5.3330848,4.95490597 5.41342072,4.99984562 5.5,5 L5.75,5 L5.75,7 L5.25,7 C5.11192882,7 5,7.11192882 5,7.25 L5,7.75 C5,7.88807118 5.11192882,8 5.25,8 Z M5.37081752,13 L7.45371403,13 C7.58922892,13 7.69908542,12.8880712 7.69908542,12.75 L7.69908542,12.25 C7.69908542,12.1119288 7.58922892,12 7.45371403,12 L6.2673433,12 C6.36825227,11.6784375 7.75,11.41625 7.75,10.23625 C7.75,9.328125 6.98321438,9 6.38604173,9 C5.73090008,9 5.34934752,9.3125 5.14507585,9.5859375 C5.01104173,9.760625 5.05306158,9.9246875 5.23095582,10.06625 L5.49411667,10.28125 C5.66618335,10.42375 5.83150235,10.3584375 5.98854005,10.205 C6.06599998,10.1276716 6.17024748,10.0845573 6.27869172,10.085 C6.38082757,10.085 6.56332255,10.13375 6.56332255,10.3584375 C6.5642427,10.7559375 5,11.0409375 5,12.5184375 L5,12.6434375 C5,12.875 5.15581085,13 5.37081752,13 Z"/>
        </g>
    </symbol>

    <symbol id="sms" xmlns="http://www.w3.org/2000/svg" viewBox="0 0 20 20">
        <g fill="none">
            <path fill="currentColor"
                  d="M19.9973114,9.99865572 C19.9973114,15.5206871 15.5206871,19.9971621 9.99865572,19.9971621 C4.47662434,19.9971621 -2.84217094e-15,15.5206871 -2.84217094e-15,9.99865572 C-2.84217094e-15,4.47647498 4.47662434,-2.84217094e-15 9.99865572,-2.84217094e-15 C15.5206871,-2.84217094e-15 19.9973114,4.47647498 19.9973114,9.99865572"/>
            <path fill="#FFF"
                  d="M10.1,4.4 C6.50976562,4.4 3.6,6.7690625 3.6,9.69285714 C3.6,10.955 4.14335938,12.1102679 5.04726562,13.0187054 C4.72988282,14.3012054 3.66855468,15.44375 3.65585938,15.4564732 C3.6,15.515 3.58476562,15.6015179 3.61777344,15.6778571 C3.65078124,15.7541964 3.721875,15.8 3.803125,15.8 C5.48652344,15.8 6.7484375,14.9908036 7.37304688,14.4920536 C8.20332032,14.8050446 9.125,14.9857143 10.1,14.9857143 C13.6902344,14.9857143 16.6,12.6166518 16.6,9.69285714 C16.6,6.7690625 13.6902344,4.4 10.1,4.4 Z M6.81964968,11.2 L6.53757034,11.2 C6.43583682,11.2 6.3526003,11.1099296 6.3526003,10.9998436 L6.3526003,10.5995309 C6.3526003,10.4894449 6.43583682,10.3993745 6.53757034,10.3993745 L6.8219618,10.3993745 C6.96068934,10.3993745 7.06242288,10.3118061 7.06242288,10.2342455 C7.06242288,10.2017201 7.04392586,10.1666927 7.01386824,10.1391712 L6.50751272,9.66880376 C6.31098204,9.48866302 6.2,9.23096168 6.2,8.9657545 C6.2,8.43283816 6.63930388,8 7.18034128,8 L7.46242062,8 C7.56415414,8 7.64739066,8.09007036 7.64739066,8.20015638 L7.64739066,8.60046912 C7.64739066,8.71055512 7.56415414,8.80062548 7.46242062,8.80062548 L7.17802916,8.80062548 C7.03930162,8.80062548 6.93756808,8.8881939 6.93756808,8.9657545 C6.93756808,8.9982799 6.9560651,9.03330728 6.98612272,9.06082878 L7.49247824,9.53119624 C7.68900894,9.71133698 7.80000897,9.96903832 7.80000897,10.2342455 C7.80230308,10.7671618 7.36068708,11.2 6.81964968,11.2 Z M11.8,11 C11.8,11.11 11.71,11.2 11.6,11.2 L11.2,11.2 C11.09,11.2 11,11.11 11,11 L11,9.295 L10.38,10.69 C10.3075,10.8375 10.095,10.8375 10.0225,10.69 L9.4,9.295 L9.4,11 C9.4,11.11 9.31,11.2 9.2,11.2 L8.8,11.2 C8.69,11.2 8.6,11.11 8.6,11 L8.6,8.4 C8.6,8.18 8.78,8 9,8 L9.4,8 C9.5525,8 9.69,8.085 9.7575,8.22 L10.2,9.105 L10.6425,8.22 C10.71,8.085 10.85,8 11,8 L11.4,8 C11.62,8 11.8,8.18 11.8,8.4 L11.8,11 Z M13.0219618,11.2 L12.7375703,11.2 C12.6358368,11.2 12.5526003,11.1099296 12.5526003,10.9998436 L12.5526003,10.5995309 C12.5526003,10.4894449 12.6358368,10.3993745 12.7375703,10.3993745 L13.0219618,10.3993745 C13.1606893,10.3993745 13.2624228,10.3118061 13.2624228,10.2342455 C13.2624228,10.2017201 13.2439258,10.1666927 13.2138682,10.1391712 L12.7075127,9.66880376 C12.510982,9.48866302 12.4,9.23096168 12.4,8.9657545 C12.4,8.43283816 12.8393039,8 13.3803413,8 L13.6624206,8 C13.7641541,8 13.8473906,8.09007036 13.8473906,8.20015638 L13.8473906,8.60046912 C13.8473906,8.71055512 13.7641541,8.80062548 13.6624206,8.80062548 L13.3780291,8.80062548 C13.2393016,8.80062548 13.1375681,8.8881939 13.1375681,8.9657545 C13.1375681,8.9982799 13.1560651,9.03330728 13.1861227,9.06082878 L13.6924782,9.53119624 C13.8890089,9.71133698 14.000009,9.96903832 14.000009,10.2342455 C14.002303,10.7671618 13.5629992,11.2 13.0219618,11.2 Z"/>
        </g>
    </symbol>

    <symbol id="caret-down" xmlns="http://www.w3.org/2000/svg" viewBox="0 0 15 9">
        <path fill="currentColor"
              d="M1.00929158,0 L13.9907084,0 C14.8887621,0 15.337789,1.14734658 14.702088,1.81974503 L8.21390225,8.687815 C7.82037309,9.10406167 7.17962691,9.10406167 6.78609775,8.687815 L0.29791195,1.81974503 C-0.337788991,1.14734658 0.111237864,0 1.00929158,0 Z"/>
    </symbol>

    <symbol id="rdv" xmlns="http://www.w3.org/2000/svg" viewBox="0 0 24 24">
        <g fill="none" fill-rule="evenodd" transform="translate(1 1)">
            <circle cx="11" cy="11" r="11" stroke="currentColor" stroke-width="2"/>
            <path fill="currentColor"
                  d="M16.459 9.18 6.031 9.18C5.53394373 9.18 5.131 9.58294373 5.131 10.08L5.131 15.08C5.131 16.1652395 6.01076047 17.045 7.096 17.045L15.396 17.045C16.4812395 17.045 17.361 16.1652395 17.361 15.08L17.361 10.08C17.361 9.58294373 16.9580563 9.18 16.461 9.18L16.459 9.18ZM8.405 14.28C8.405 14.5992206 8.14622059 14.8580078 7.827 14.8580078L7.676 14.8580078C7.52218574 14.8587984 7.3743973 14.7982547 7.26535156 14.689772 7.15630582 14.5812894 7.0949922 14.4338163 7.0949922 14.28L7.0949922 14.129C7.09420165 13.9751857 7.15474527 13.8273973 7.26322795 13.7183516 7.37171063 13.6093058 7.51918367 13.5479922 7.673 13.5479922L7.824 13.5479922C7.97781426 13.5472016 8.1256027 13.6077453 8.23464844 13.716228 8.34369418 13.8247106 8.405 13.9721837 8.405 14.126L8.405 14.28ZM8.405 11.66C8.405 11.9792206 8.14622059 12.2380078 7.827 12.2380078L7.676 12.2380078C7.52218574 12.2387984 7.3743973 12.1782547 7.26535156 12.069772 7.15630582 11.9612894 7.0949922 11.8138163 7.0949922 11.66L7.0949922 11.509C7.09420165 11.3551857 7.15474527 11.2073973 7.26322795 11.0983516 7.37171063 10.9893058 7.51918367 10.9279922 7.673 10.9279922L7.824 10.9279922C7.97781426 10.9272016 8.1256027 10.9877453 8.23464844 11.096228 8.34369418 11.2047106 8.405 11.3521837 8.405 11.506L8.405 11.66ZM11.898 14.28C11.898 14.5992206 11.6392206 14.8580078 11.32 14.8580078L11.169 14.8580078C11.0151857 14.8587984 10.8673973 14.7982547 10.7583516 14.689772 10.6493058 14.5812894 10.5879922 14.4338163 10.5879922 14.28L10.5879922 14.129C10.5872016 13.9751857 10.6477453 13.8273973 10.756228 13.7183516 10.8647106 13.6093058 11.0121837 13.5479922 11.166 13.5479922L11.317 13.5479922C11.4708143 13.5472016 11.6186027 13.6077453 11.7276484 13.716228 11.8366942 13.8247106 11.898 13.9721837 11.898 14.126L11.898 14.28ZM11.898 11.66C11.898 11.9792206 11.6392206 12.2380078 11.32 12.2380078L11.169 12.2380078C11.0151857 12.2387984 10.8673973 12.1782547 10.7583516 12.069772 10.6493058 11.9612894 10.5879922 11.8138163 10.5879922 11.66L10.5879922 11.509C10.5872016 11.3551857 10.6477453 11.2073973 10.756228 11.0983516 10.8647106 10.9893058 11.0121837 10.9279922 11.166 10.9279922L11.317 10.9279922C11.4708143 10.9272016 11.6186027 10.9877453 11.7276484 11.096228 11.8366942 11.2047106 11.898 11.3521837 11.898 11.506L11.898 11.66ZM15.391 14.28C15.391 14.5992206 15.1322206 14.8580078 14.813 14.8580078L14.662 14.8580078C14.5081857 14.8587984 14.3603973 14.7982547 14.2513516 14.689772 14.1423058 14.5812894 14.0809922 14.4338163 14.0809922 14.28L14.0809922 14.129C14.0802016 13.9751857 14.1407453 13.8273973 14.249228 13.7183516 14.3577106 13.6093058 14.5051837 13.5479922 14.659 13.5479922L14.81 13.5479922C14.9638143 13.5472016 15.1116027 13.6077453 15.2206484 13.716228 15.3296942 13.8247106 15.391 13.9721837 15.391 14.126L15.391 14.28ZM15.391 11.66C15.391 11.9792206 15.1322206 12.2380078 14.813 12.2380078L14.662 12.2380078C14.5081857 12.2387984 14.3603973 12.1782547 14.2513516 12.069772 14.1423058 11.9612894 14.0809922 11.8138163 14.0809922 11.66L14.0809922 11.509C14.0802016 11.3551857 14.1407453 11.2073973 14.249228 11.0983516 14.3577106 10.9893058 14.5051837 10.9279922 14.659 10.9279922L14.81 10.9279922C14.9638143 10.9272016 15.1116027 10.9877453 15.2206484 11.096228 15.3296942 11.2047106 15.391 11.3521837 15.391 11.506L15.391 11.66ZM16.561 5.687 15.609 5.687C15.609 5.37510713 15.4426072 5.08690623 15.1725 4.93095979 14.9023929 4.77501335 14.5696071 4.77501335 14.2995 4.93095979 14.0293928 5.08690623 13.863 5.37510713 13.863 5.687L13.863 6.124C13.870705 6.28493095 13.7892348 6.43704688 13.6510072 6.51981927 13.5127796 6.60259166 13.3402204 6.60259166 13.2019928 6.51981927 13.0637652 6.43704688 12.982295 6.28493095 12.99 6.124L12.99 6.034C12.99 5.94196988 12.9534412 5.85370907 12.8883661 5.78863395 12.8232909 5.72355882 12.7350301 5.687 12.643 5.687L8.624 5.687C8.624 5.20485541 8.23314459 4.81399996 7.751 4.81399996 7.26885541 4.81399996 6.878 5.20485541 6.878 5.687L6.878 6.124C6.86684658 6.35695694 6.67472379 6.54010144 6.4415 6.54010144 6.20827621 6.54010144 6.01615342 6.35695694 6.005 6.124L6.005 5.687 5.926 5.687C5.48806884 5.68972862 5.13372862 6.04406884 5.131 6.482L5.131 7.87C5.131 8.11134844 5.32665156 8.307 5.568 8.307L16.919 8.307C17.1603484 8.307 17.356 8.11134844 17.356 7.87L17.356 6.482C17.3532714 6.04406884 16.9989312 5.68972862 16.561 5.687L16.561 5.687Z"/>
        </g>
    </symbol>

    <symbol id="rdv-email" xmlns="http://www.w3.org/2000/svg" viewBox="0 0 24 24">
        <g fill="none" fill-rule="evenodd" transform="translate(1 1)">
            <circle cx="11" cy="11" r="11" stroke="currentColor" stroke-width="2"/>
            <path fill="currentColor" fill-rule="nonzero"
                  d="M5.75000119,6.37504028 C6.07365921,6.12991611 6.46900027,5.99813576 6.87500119,6.00001993 L15.1250012,6.00001993 C15.5310021,5.99813576 15.9263432,6.12991611 16.2500012,6.37504028 C16.4222359,6.50015227 16.5196387,6.70378273 16.5089476,6.91639385 C16.4982566,7.12900497 16.3809177,7.32183723 16.1970012,7.42904028 L11.1970012,10.3580403 C11.0747984,10.4350877 10.919204,10.4350877 10.7970012,10.3580403 L5.81000119,7.42104028 C5.62861628,7.31436055 5.51247012,7.12416278 5.50041934,6.91407748 C5.48836856,6.70399219 5.58200445,6.50176103 5.75000119,6.37504028 Z M17.0000006,13.1250403 C17.0000006,14.1605742 16.1605351,15.0000403 15.1250012,15.0000403 L6.87500119,15.0000403 C5.83946729,15.0000403 5.0000006,14.1605742 5.0000006,13.1250403 L5.0000006,9.63704028 C4.99971189,9.4415091 5.10438146,9.2608642 5.27416298,9.16387573 C5.4439445,9.06688726 5.65271655,9.06847721 5.82100119,9.16804028 L10.0470012,11.6510403 C10.639578,11.9994702 11.3744244,11.9994702 11.9670012,11.6510403 L16.1930012,9.16804028 C16.3603251,9.07606195 16.5636218,9.07854018 16.7286539,9.17457001 C16.8936859,9.27059983 16.9962911,9.44612154 16.9990012,9.63704028 L17.0000006,13.1250403 Z"/>
        </g>
    </symbol>
</svg>
