<?xml version="1.0" encoding="UTF-8"?>
<svg width="100px" height="100px" viewBox="0 0 100 100" version="1.1" xmlns="http://www.w3.org/2000/svg" xmlns:xlink="http://www.w3.org/1999/xlink">
    <title>implants-dentaires</title>
    <g id="Page-1" stroke="none" stroke-width="1" fill="none" fill-rule="evenodd">
        <g id="implants-dentaires" fill-rule="nonzero">
            <path d="M99.9865571,49.9932786 C99.9865571,77.6034354 77.6034354,99.9858103 49.9932786,99.9858103 C22.3831217,99.9858103 -1.42108547e-14,77.6034354 -1.42108547e-14,49.9932786 C-1.42108547e-14,22.3823749 22.3831217,-1.42108547e-14 49.9932786,-1.42108547e-14 C77.6034354,-1.42108547e-14 99.9865571,22.3823749 99.9865571,49.9932786" id="Fill-68" fill="#A2195B"></path>
            <path d="M78.4645258,63.6534727 C77.3890963,57.9208364 72.7610157,39.3106796 66.0022405,39.3106796 L33.6079164,39.3106796 C26.8491412,39.3106796 22.5003734,57.0776699 21.4884242,63.6534727 C20.4772218,70.2292756 23.9895444,75.8304705 30.7483196,75.8304705 L69.6026886,75.8304705 C76.3614638,75.8304705 79.5392084,69.386109 78.4645258,63.6534727" id="Fill-69" fill="#EA90A0"></path>
            <path d="M65.8043316,30.8939507 C65.7168783,29.2621359 64.8132935,27.1822255 63.9962659,26.2292756 C63.1792382,25.2763256 61.6549664,24.3711725 60.5937267,24.2083645 C59.5317401,24.0455564 57.3592233,24.0911128 55.7401046,24.3129201 L49.9925317,25.0955937 L44.2449589,24.3129201 C42.6258402,24.0911128 40.4533234,24.0455564 39.39059,24.2083645 C38.3293503,24.3711725 36.8058252,25.2763256 35.9887976,26.2292756 C35.17177,27.1822255 34.2688574,29.2621359 34.1807319,30.8939507 C34.0246453,33.78118 34.2165795,38.3547423 36.2845407,42.5511576 C36.2845407,42.5511576 37.764003,45.5100822 37.764003,50.2442121 C37.764003,53.7057506 39.0836445,61.1702763 40.7961165,64.4906647 C41.5444361,65.9432412 43.7886482,65.665422 44.2434653,64.0948469 C45.8334578,58.592233 46.9678865,44.7318895 49.9917849,44.7707244 C53.0149365,44.7318895 54.1486184,58.592233 55.7415982,64.0948469 C56.1964152,65.665422 58.4413742,65.9432412 59.1896938,64.4906647 C60.9021658,61.1702763 62.2218073,53.7072442 62.2218073,50.2442121 C62.2218073,45.5100822 63.7012696,42.5511576 63.7012696,42.5511576 C65.7684839,38.3547423 65.9604182,33.78118 65.8043316,30.8939507" id="Fill-70" fill="#F3F1F2"></path>
            <polygon id="Fill-71" fill="#A7A7A5" points="41.0933532 39.982823 58.9424944 39.982823 58.9424944 28.1082898 41.0933532 28.1082898"></polygon>
            <path d="M58.849888,39.8849888 C58.849888,41.5160568 54.8834951,42.8386856 49.9902913,42.8386856 C45.0970874,42.8386856 41.1299477,41.5160568 41.1299477,39.8849888 C41.1299477,38.2539208 45.0970874,36.9320388 49.9902913,36.9320388 C54.8834951,36.9320388 58.849888,38.2539208 58.849888,39.8849888" id="Fill-72" fill="#A7A7A5"></path>
            <path d="M58.849888,28.0716953 C58.849888,29.7027633 54.8834951,31.0253921 49.9902913,31.0253921 C45.0970874,31.0253921 41.1299477,29.7027633 41.1299477,28.0716953 C41.1299477,26.4406273 45.0970874,25.1187453 49.9902913,25.1187453 C54.8834951,25.1187453 58.849888,26.4406273 58.849888,28.0716953" id="Fill-73" fill="#C7C7C3"></path>
        </g>
    </g>
</svg>