<?xml version="1.0" encoding="UTF-8"?>
<svg width="100px" height="100px" viewBox="0 0 100 100" version="1.1" xmlns="http://www.w3.org/2000/svg" xmlns:xlink="http://www.w3.org/1999/xlink">
    <title>9</title>
    <g id="9" stroke="none" stroke-width="1" fill="none" fill-rule="evenodd">
        <g>
            <path d="M99.9865571,49.9932786 C99.9865571,77.6034354 77.6034354,99.9858103 49.9932786,99.9858103 C22.3831217,99.9858103 -1.42108547e-14,77.6034354 -1.42108547e-14,49.9932786 C-1.42108547e-14,22.3823749 22.3831217,-1.687539e-14 49.9932786,-1.687539e-14 C77.6034354,-1.687539e-14 99.9865571,22.3823749 99.9865571,49.9932786" id="Fill-68" fill="#46AFA5"></path>
            <path d="M50.5,22 C32.5488281,22 18,33.8453125 18,48.4642857 C18,54.775 20.7167969,60.5513393 25.2363281,65.0935268 C23.6494141,71.5060268 18.3427734,77.21875 18.2792969,77.2823661 C18,77.575 17.9238281,78.0075893 18.0888672,78.3892857 C18.2539062,78.7709821 18.609375,79 19.015625,79 C27.4326172,79 33.7421875,74.9540179 36.8652344,72.4602679 C41.0166016,74.0252232 45.625,74.9285714 50.5,74.9285714 C68.4511719,74.9285714 83,63.0832589 83,48.4642857 C83,33.8453125 68.4511719,22 50.5,22 Z M34.0982484,56 L32.6878517,56 C32.1791841,56 31.7630015,55.5496482 31.7630015,54.9992181 L31.7630015,52.9976544 C31.7630015,52.4472244 32.1791841,51.9968726 32.6878517,51.9968726 L34.109809,51.9968726 C34.8034467,51.9968726 35.3121144,51.5590305 35.3121144,51.1712275 C35.3121144,51.0086005 35.2196293,50.8334636 35.0693412,50.6958561 L32.5375636,48.3440188 C31.5549102,47.4433151 31,46.1548084 31,44.8287725 C31,42.1641908 33.1965194,40 35.9017064,40 L37.3121031,40 C37.8207707,40 38.2369533,40.4503518 38.2369533,41.0007819 L38.2369533,43.0023456 C38.2369533,43.5527756 37.8207707,44.0031274 37.3121031,44.0031274 L35.8901458,44.0031274 C35.1965081,44.0031274 34.6878404,44.4409695 34.6878404,44.8287725 C34.6878404,44.9913995 34.7803255,45.1665364 34.9306136,45.3041439 L37.4623912,47.6559812 C38.4450447,48.5566849 39,49.8451916 39,51.1712275 C39.0115154,53.8358092 36.8034354,56 34.0982484,56 Z M59,55 C59,55.55 58.55,56 58,56 L56,56 C55.45,56 55,55.55 55,55 L55,46.475 L51.9,53.45 C51.5375,54.1875 50.475,54.1875 50.1125,53.45 L47,46.475 L47,55 C47,55.55 46.55,56 46,56 L44,56 C43.45,56 43,55.55 43,55 L43,42 C43,40.9 43.9,40 45,40 L47,40 C47.7625,40 48.45,40.425 48.7875,41.1 L51,45.525 L53.2125,41.1 C53.55,40.425 54.25,40 55,40 L57,40 C58.1,40 59,40.9 59,42 L59,55 Z M65.1098089,56 L63.6878517,56 C63.1791841,56 62.7630014,55.5496482 62.7630014,54.9992181 L62.7630014,52.9976544 C62.7630014,52.4472244 63.1791841,51.9968726 63.6878517,51.9968726 L65.1098089,51.9968726 C65.8034466,51.9968726 66.3121142,51.5590305 66.3121142,51.1712275 C66.3121142,51.0086005 66.2196292,50.8334636 66.0693411,50.6958561 L63.5375635,48.3440188 C62.5549101,47.4433151 62,46.1548084 62,44.8287725 C62,42.1641908 64.1965193,40 66.9017063,40 L68.3121029,40 C68.8207705,40 69.2369531,40.4503518 69.2369531,41.0007819 L69.2369531,43.0023456 C69.2369531,43.5527756 68.8207705,44.0031274 68.3121029,44.0031274 L66.8901456,44.0031274 C66.196508,44.0031274 65.6878403,44.4409695 65.6878403,44.8287725 C65.6878403,44.9913995 65.7803254,45.1665364 65.9306135,45.3041439 L68.4623911,47.6559812 C69.4450444,48.5566849 70,49.8451916 70,51.1712275 C70.0115152,53.8358092 67.8149959,56 65.1098089,56 Z" id="Shape" fill="#EBEBE9" fill-rule="nonzero"></path>
        </g>
    </g>
</svg>