<?xml version="1.0" encoding="UTF-8"?>
<svg width="100px" height="100px" viewBox="0 0 100 100" version="1.1" xmlns="http://www.w3.org/2000/svg" xmlns:xlink="http://www.w3.org/1999/xlink">
    <title>9</title>
    <g id="9" stroke="none" stroke-width="1" fill="none" fill-rule="evenodd">
        <g>
            <path d="M99.9865571,49.9932786 C99.9865571,77.6034354 77.6034354,99.9858103 49.9932786,99.9858103 C22.3831217,99.9858103 -1.42108547e-14,77.6034354 -1.42108547e-14,49.9932786 C-1.42108547e-14,22.3823749 22.3831217,-1.69864123e-14 49.9932786,-1.69864123e-14 C77.6034354,-1.69864123e-14 99.9865571,22.3823749 99.9865571,49.9932786" id="Fill-68" fill="#46AFA5"></path>
            <path d="M73.4666667,15.4474378 L68.1666667,21.6592843 L60.6583333,15.4474378 C59.8747014,14.8511704 58.7919652,14.8511704 58.0083333,15.4474378 L50.5,21.6592843 L42.9916667,15.4474378 C42.2080348,14.8511704 41.1252986,14.8511704 40.3416667,15.4474378 L32.8333333,21.6592843 L27.5333333,15.4474378 C26.0703125,14.3520452 24,15.3919749 24,17.2222511 L24,83.7777489 C24,85.6080251 26.0703125,86.6479548 27.5333333,85.5525622 L32.8333333,79.3407157 L40.3416667,85.5525622 C41.1252986,86.1488296 42.2080348,86.1488296 42.9916667,85.5525622 L50.5,79.3407157 L58.0083333,85.5525622 C58.7919652,86.1488296 59.8747014,86.1488296 60.6583333,85.5525622 L68.1666667,79.3407157 L73.4666667,85.5525622 C74.9158854,86.6479548 77,85.6080251 77,83.7777489 L77,17.2222511 C77,15.3919749 74.9296875,14.3520452 73.4666667,15.4474378 Z M68,65 C68,65.55 67.5078125,66 66.90625,66 L34.09375,66 C33.4921875,66 33,65.55 33,65 L33,63 C33,62.45 33.4921875,62 34.09375,62 L66.90625,62 C67.5078125,62 68,62.45 68,63 L68,65 Z M68,51 C68,51.55 67.5078125,52 66.90625,52 L34.09375,52 C33.4921875,52 33,51.55 33,51 L33,49 C33,48.45 33.4921875,48 34.09375,48 L66.90625,48 C67.5078125,48 68,48.45 68,49 L68,51 Z M68,38 C68,38.55 67.5078125,39 66.90625,39 L34.09375,39 C33.4921875,39 33,38.55 33,38 L33,36 C33,35.45 33.4921875,35 34.09375,35 L66.90625,35 C67.5078125,35 68,35.45 68,36 L68,38 Z" id="Shape" fill="#EBEBE9" fill-rule="nonzero"></path>
        </g>
    </g>
</svg>