<?xml version="1.0" encoding="UTF-8"?>
<svg width="100px" height="100px" viewBox="0 0 100 100" version="1.1" xmlns="http://www.w3.org/2000/svg" xmlns:xlink="http://www.w3.org/1999/xlink">
    <title>soins-esthetiques</title>
    <g id="Page-1" stroke="none" stroke-width="1" fill="none" fill-rule="evenodd">
        <g id="soins-esthetiques" fill-rule="nonzero">
            <path d="M99.9865571,49.9930545 C99.9865571,77.6034354 77.6034354,99.9858103 49.9932786,99.9858103 C22.3831217,99.9858103 -1.42108547e-14,77.6034354 -1.42108547e-14,49.9930545 C-1.42108547e-14,22.3826736 22.3831217,0 49.9932786,0 C77.6034354,0 99.9865571,22.3826736 99.9865571,49.9930545" id="Fill-7" fill="#A2195B"></path>
            <path d="M78.4645258,68.3654966 C77.3890963,62.6328603 72.7602689,43.9849141 66.0014937,43.9849141 L33.6079164,43.9849141 C26.8491412,43.9849141 22.5003734,61.7893951 21.4884242,68.3654966 C20.476475,74.9417476 23.9895444,80.579537 30.7483196,80.579537 L69.6026886,80.579537 C76.3614638,80.579537 79.5392084,74.0979836 78.4645258,68.3654966" id="Fill-8" fill="#EA90A0"></path>
            <path d="M65.8050037,35.5878267 C65.7169529,33.9560119 64.8140403,31.8766243 63.996938,30.9231516 C63.1799851,29.9704257 61.6557132,29.0653473 60.5944735,28.9023898 C59.5324869,28.739283 57.3599701,28.7854369 55.7408514,29.0069455 L49.9932786,29.7899178 L44.2457058,29.0069455 C42.626587,28.7854369 40.4540702,28.739283 39.3913368,28.9023898 C38.3300971,29.0653473 36.8065721,29.9704257 35.9895444,30.9231516 C35.1725168,31.8766243 34.2696042,33.9560119 34.1814787,35.5878267 C34.0253921,38.4753547 34.2173264,43.048469 36.2852875,47.245407 C36.2852875,47.245407 37.7647498,50.2043316 37.7647498,54.9382375 C37.7647498,58.4000747 39.0836445,65.8646004 40.7961165,69.1847647 C41.545183,70.63764 43.7893951,70.3592233 44.2442121,68.7888723 C45.8342046,63.2861837 46.9678865,49.4262883 49.9925317,49.4646004 C53.0156833,49.4262883 54.1493652,63.2861837 55.742345,68.7888723 C56.1971621,70.3592233 58.442121,70.63764 59.1904406,69.1847647 C60.9029126,65.8646004 62.2225541,58.401643 62.2225541,54.9382375 C62.2225541,50.2043316 63.7020164,47.245407 63.7020164,47.245407 C65.7692308,43.048469 65.961165,38.4753547 65.8050037,35.5878267" id="Fill-9" fill="#F3F1F2"></path>
            <path d="M37.545183,34.224944 C37.7311426,32.0477222 39.4652726,30.3135922 41.6430172,30.1281553 C39.4540702,29.9418969 37.7132188,28.19059 37.5429425,25.9977595 C37.339059,28.1982823 35.5511576,29.9386856 33.3300971,30.0696042 L33.2912621,30.1085885 L33.2994772,30.1171023 C35.5459298,30.2344287 37.3554892,31.9984317 37.545183,34.224944" id="Fill-10" fill="#8ECEE6"></path>
            <path d="M49.4062733,41.2144884 C49.592233,39.0373413 51.326363,37.3031367 53.5033607,37.1176998 C51.3151606,36.9314414 49.5743092,35.1801344 49.4040329,32.987304 C49.2001494,35.1878267 47.4122479,36.92823 45.1911875,37.0592233 L45.1523525,37.0982076 L45.1613144,37.1066468 C47.4070202,37.2241225 49.2165795,38.9881255 49.4062733,41.2144884" id="Fill-11" fill="#8ECEE6"></path>
            <path d="M33.6960418,26.5869305 C33.8364451,24.9365198 35.1516057,23.6219567 36.8020911,23.481404 C35.1426438,23.3401792 33.8237491,22.0126214 33.6938013,20.3504854 C33.5392084,22.0184466 32.184466,23.3377894 30.5011202,23.4370426 L30.4712472,23.4665422 L30.4779686,23.4730396 C32.1807319,23.5620612 33.5519044,24.8992532 33.6960418,26.5869305" id="Fill-12" fill="#8ECEE6"></path>
            <path d="M40.4174757,23.7062733 C40.5138163,22.5722928 41.4174757,21.6690814 42.5511576,21.5725168 C41.4115011,21.4755041 40.5048544,20.5633308 40.4159821,19.4212099 C40.3099328,20.567289 39.3786408,21.4738611 38.2218073,21.5419716 L38.201643,21.5622853 L38.206124,21.5667662 C39.3764003,21.6279313 40.3188947,22.5466766 40.4174757,23.7062733" id="Fill-13" fill="#8ECEE6"></path>
        </g>
    </g>
</svg>