<?xml version="1.0" encoding="UTF-8"?>
<svg width="100px" height="100px" viewBox="0 0 100 100" version="1.1" xmlns="http://www.w3.org/2000/svg" xmlns:xlink="http://www.w3.org/1999/xlink">
    <title>9</title>
    <g id="9" stroke="none" stroke-width="1" fill="none" fill-rule="evenodd">
        <g>
            <path d="M99.9865571,49.9932786 C99.9865571,77.6034354 77.6034354,99.9858103 49.9932786,99.9858103 C22.3831217,99.9858103 -1.6980857e-14,77.6034354 -1.6980857e-14,49.9932786 C-1.6980857e-14,22.3823749 22.3831217,-1.6980857e-14 49.9932786,-1.6980857e-14 C77.6034354,-1.6980857e-14 99.9865571,22.3823749 99.9865571,49.9932786" id="Fill-68" fill="#46AFA5"></path>
            <path d="M80.1744994,63.2247665 L66.1743307,57.224692 C64.945723,56.7010871 63.5189315,57.0526895 62.6742885,58.0872027 L56.4742138,65.6622967 C46.7437734,61.0744866 38.9130053,53.2437157 34.3251968,43.5132719 L41.9002881,37.313195 C42.9370445,36.4699718 43.2890496,35.0415446 42.7627985,33.8131516 L36.7627262,19.8129779 C36.1828205,18.483444 34.7396081,17.7539654 33.3251848,18.0754563 L20.3250281,21.0754936 C18.9637758,21.3898355 18,22.6022044 18,23.9992798 C18,56.0621776 43.9878133,82 76.0006991,82 C77.3982415,82.0008955 78.6112875,81.036679 78.9257343,79.6749705 L81.9257705,66.6748093 C82.2451709,65.253595 81.5102608,63.8058059 80.1744994,63.2247665 L80.1744994,63.2247665 Z" id="Path" fill="#EBEBE9" fill-rule="nonzero"></path>
        </g>
    </g>
</svg>