<?xml version="1.0" encoding="UTF-8"?>
<svg width="100px" height="100px" viewBox="0 0 100 100" version="1.1" xmlns="http://www.w3.org/2000/svg" xmlns:xlink="http://www.w3.org/1999/xlink">
    <title>parodontologie</title>
    <g id="Page-1" stroke="none" stroke-width="1" fill="none" fill-rule="evenodd">
        <g id="parodontologie" fill-rule="nonzero">
            <path d="M99.9865571,49.9930545 C99.9865571,77.6034354 77.6034354,99.9858103 49.9932786,99.9858103 C22.3831217,99.9858103 -7.10542736e-15,77.6034354 -7.10542736e-15,49.9930545 C-7.10542736e-15,22.3826736 22.3831217,0 49.9932786,0 C77.6034354,0 99.9865571,22.3826736 99.9865571,49.9930545" id="Fill-4" fill="#A2195B"></path>
            <path d="M42.5429425,26.475056 C43.3539955,25.1598954 45.0448096,23.8421957 46.1538462,23.4200896 C47.2636296,22.9987304 48.9387603,22.9367438 49.8932039,23.281404 C50.8483943,23.6262883 52.631068,24.6473488 53.8752801,25.5637043 L58.2927558,28.8132935 L63.4189694,30.7630321 C64.8640777,31.3118745 66.6878267,32.256236 67.4966393,32.8722181 C68.304705,33.4876027 69.1598208,34.9281553 69.4070202,36.0887976 C69.6542196,37.2498133 69.4630321,39.3847647 68.798357,40.7792382 C67.6213592,43.2471994 65.3935773,46.9571322 61.7781927,49.506124 C61.7781927,49.506124 59.2113518,51.2935026 57.0702016,55.2238984 C55.5041075,58.0981329 51.0328603,63.6986557 48.1090366,65.6804332 C46.8304705,66.5480209 45.0933532,65.3018671 45.4256908,63.7925317 C46.5944735,58.504481 51.9223301,46.4846901 49.3943241,45.148469 C46.9021658,43.7494399 39.690814,54.7431665 35.879761,58.5914862 C34.7916355,59.6892457 32.8020911,58.9050784 32.8379388,57.3604929 C32.9178491,53.8293503 35.1979089,47.0363704 36.7647498,44.1608663 C38.9058999,40.2307692 39.0164302,37.1049291 39.0164302,37.1049291 C39.1986557,32.6853622 41.1075429,28.8017177 42.5429425,26.475056" id="Fill-5" fill="#F3F1F2"></path>
            <path d="M70.3532487,48.1121733 C66.0866318,46.0476475 50.6713966,67.9317401 47.78118,68.7575803 C44.8909634,69.5834205 42.1381628,66.8306945 42.9634055,64.490814 C43.7893951,62.1510082 44.4779686,58.0219567 41.862584,56.6455564 C39.2479462,55.2692308 34.8431665,62.9768484 31.5399552,62.9768484 C28.2367438,62.9768484 30.1635549,55.1315907 31.5399552,51.8283047 C32.9163555,48.5250934 31.95295,45.2218073 28.6497386,44.8088872 C28.6430172,44.8079164 28.6355489,44.807991 28.6288275,44.8073936 C28.4234503,44.8398805 28.2210605,44.8914862 28.0209111,44.9601942 C25.5765497,46.2944735 21.6303211,55.8643017 19.4174757,61.6752054 C19.004481,63.439059 18.7057506,65.0127707 18.5257655,66.1799851 C17.6377894,71.9497386 20.7199403,76.9200896 26.6504854,76.9200896 L73.65646,76.9200896 C79.5862584,76.9200896 82.3749066,71.2097087 81.4316654,66.1799851 C81.2128454,65.0149365 80.8274832,63.239283 80.2897685,61.2007468 C77.3510082,53.756236 72.9559373,49.3713966 70.3532487,48.1121733" id="Fill-6" fill="#EA90A0"></path>
        </g>
    </g>
</svg>