<?xml version="1.0" encoding="UTF-8"?>
<svg width="100px" height="100px" viewBox="0 0 100 100" version="1.1" xmlns="http://www.w3.org/2000/svg" xmlns:xlink="http://www.w3.org/1999/xlink">
    <title>9</title>
    <g id="9" stroke="none" stroke-width="1" fill="none" fill-rule="evenodd">
        <g>
            <path d="M99.9865571,49.9932786 C99.9865571,77.6034354 77.6034354,99.9858103 49.9932786,99.9858103 C22.3831217,99.9858103 -1.42108547e-14,77.6034354 -1.42108547e-14,49.9932786 C-1.42108547e-14,22.3823749 22.3831217,-1.69864123e-14 49.9932786,-1.69864123e-14 C77.6034354,-1.69864123e-14 99.9865571,22.3823749 99.9865571,49.9932786" id="Fill-68" fill="#46AFA5"></path>
            <path d="M25.5076173,68.125 L27.6348953,65.60625 C28.0582638,65.1207909 28.2795479,64.4839244 28.2511981,63.8325 L28.2511981,63.41875 C28.2511981,62.5 27.7844126,62 26.872722,62 L19.9438736,62 C19.4067932,62 18.9714036,62.4477153 18.9714036,63 L18.9714036,65 C18.9714036,65.5522847 19.4067932,66 19.9438736,66 L22.7190597,66 C22.247477,66.4885128 21.801148,67.0021356 21.3819135,67.53875 L20.6999689,68.41375 C20.213734,69.0475 20.0617855,69.68 20.3596045,70.27375 L20.4872411,70.515 C20.8519174,71.235 21.2518456,71.5 21.9763358,71.5 L22.5513086,71.5 C23.8070104,71.5 24.488955,71.805 24.488955,72.63625 C24.488955,73.22625 23.9784083,73.66375 22.7433714,73.66375 C22.0980575,73.6585113 21.4597017,73.5261226 20.8628577,73.27375 C20.0739414,72.78875 19.435758,72.83625 18.9665412,73.66375 L18.2870279,74.8275 C17.8348293,75.59375 17.8992555,76.2925 18.6067274,76.82 C19.5439453,77.40625 21.0840946,78 23.1044009,78 C27.2568476,78 29,75.15625 29,72.485 C28.9963532,70.6875 27.8913843,68.765 25.5076173,68.125 L25.5076173,68.125 Z M80,46 L40,46 C38.8954305,46 38,46.8954305 38,48 L38,52 C38,53.1045695 38.8954305,54 40,54 L80,54 C81.1045695,54 82,53.1045695 82,52 L82,48 C82,46.8954305 81.1045695,46 80,46 Z M80,26 L40,26 C38.8954305,26 38,26.8954305 38,28 L38,32 C38,33.1045695 38.8954305,34 40,34 L80,34 C81.1045695,34 82,33.1045695 82,32 L82,28 C82,26.8954305 81.1045695,26 80,26 Z M80,66 L40,66 C38.8954305,66 38,66.8954305 38,68 L38,72 C38,73.1045695 38.8954305,74 40,74 L80,74 C81.1045695,74 82,73.1045695 82,72 L82,68 C82,66.8954305 81.1045695,66 80,66 Z M20,38 L28,38 C28.5522847,38 29,37.5522847 29,37 L29,35 C29,34.4477153 28.5522847,34 28,34 L26,34 L26,23 C26,22.4477153 25.5522847,22 25,22 L22,22 C21.6219861,22.0006747 21.2766609,22.2144474 21.1075,22.5525 L20.1075,24.5525 C19.9525223,24.862206 19.9688197,25.2300502 20.1505794,25.524837 C20.3323392,25.8196239 20.6536829,25.9993825 21,26 L22,26 L22,34 L20,34 C19.4477153,34 19,34.4477153 19,35 L19,37 C19,37.5522847 19.4477153,38 20,38 Z M19.4832701,58 L27.8148561,58 C28.3569157,58 28.7963417,57.5522847 28.7963417,57 L28.7963417,55 C28.7963417,54.4477153 28.3569157,54 27.8148561,54 L23.0693732,54 C23.4730091,52.71375 29,51.665 29,46.945 C29,43.3125 25.9328575,42 23.5441669,42 C20.9236003,42 19.3973901,43.25 18.5803034,44.34375 C18.0441669,45.0425 18.2122463,45.69875 18.9238233,46.265 L19.9764667,47.125 C20.6647334,47.695 21.3260094,47.43375 21.9541602,46.82 C22.2639999,46.5106866 22.6809899,46.3382292 23.1147669,46.34 C23.5233103,46.34 24.2532902,46.535 24.2532902,47.43375 C24.2569708,49.02375 18,50.16375 18,56.07375 L18,56.57375 C18,57.5 18.6232434,58 19.4832701,58 Z" id="Shape" fill="#EBEBE9" fill-rule="nonzero"></path>
        </g>
    </g>
</svg>