<?xml version="1.0" encoding="UTF-8"?>
<svg width="100px" height="100px" viewBox="0 0 100 100" version="1.1" xmlns="http://www.w3.org/2000/svg" xmlns:xlink="http://www.w3.org/1999/xlink">
    <title>remove</title>
    <g id="Page-1" stroke="none" stroke-width="1" fill="none" fill-rule="evenodd">
        <g id="remove" fill="#DBB24F" fill-rule="nonzero">
            <path d="M85.8436565,15.0793064 C76.6238021,5.56472877 63.9802187,0.134833622 50.7320185,-3.69482223e-13 L50.0508202,-3.69482223e-13 C22.554109,-0.0678744756 0.178043582,22.1095583 0.0010561991,49.6057845 C-0.175931184,77.1020106 21.9127891,99.5656538 49.4080997,99.8514384 L50.0821725,99.8514384 C77.3561916,99.7405151 99.5354038,77.8418441 99.9934842,50.5714464 C100.208114,37.3254267 95.1126549,24.544441 85.8436565,15.0793064 Z M70.8230922,59.7337562 L70.7019586,59.7337562 L28.2082975,59.1733559 C23.4361564,59.1053354 19.6197893,55.1869604 19.677643,50.4146853 C19.8183049,45.6741394 23.693707,41.8996265 28.4363136,41.8840308 L70.9299748,42.4440955 C75.7042901,42.4736103 79.5507108,46.367884 79.5215316,51.1421994 C79.4916812,55.9165147 75.5974075,59.7629354 70.8230922,59.7337562 Z" id="Path_739"></path>
        </g>
    </g>
</svg>