<?xml version="1.0" encoding="UTF-8"?>
<svg width="100px" height="100px" viewBox="0 0 100 100" version="1.1" xmlns="http://www.w3.org/2000/svg" xmlns:xlink="http://www.w3.org/1999/xlink">
    <title>view</title>
    <g id="view" stroke="none" stroke-width="1" fill="none" fill-rule="evenodd">
        <g transform="translate(0.000000, 16.000000)" fill-rule="nonzero" id="Path">
            <path d="M99.0274395,35.6900838 C90.8295289,55.3650694 71.1545431,67.6619354 49.8399754,67.6619354 C28.5254075,67.6619354 8.85042202,55.3650694 0.652511307,35.6900838 C-0.167279763,34.8702927 -0.167279763,33.2307106 0.652511307,32.4109196 C8.85042202,12.7359339 28.5254075,0.439067921 49.8399754,0.439067921 C71.1545431,0.439067921 90.8295289,13.555725 99.0274395,32.4109196 C99.8472307,33.2307106 99.8472307,34.8702927 99.0274395,35.6900838 Z" fill="#DBB24F"></path>
            <path d="M49.8399754,55.7957269 C38.3277973,55.7957269 28.0947501,46.8418107 28.0947501,34.0505017 C28.0947501,21.2591927 37.0486663,12.3052764 49.8399754,12.3052764 C61.3521534,12.3052764 71.5852006,21.2591927 71.5852006,34.0505017 C71.5852006,46.8418107 61.3521534,55.7957269 49.8399754,55.7957269 Z" fill="#FFFFFF"></path>
            <path d="M49.8399754,27.9681795 C46.3643626,27.9681795 43.7576532,30.574889 43.7576532,34.0505017 C43.7576532,37.5261143 46.3643626,40.1328239 49.8399754,40.1328239 C53.315588,40.1328239 55.9222975,37.5261143 55.9222975,34.0505017 C55.9222975,30.574889 53.315588,27.9681795 49.8399754,27.9681795 Z" fill="#DBB24F"></path>
        </g>
    </g>
</svg>