<?xml version="1.0" encoding="UTF-8"?>
<svg width="100px" height="100px" viewBox="0 0 100 100" version="1.1" xmlns="http://www.w3.org/2000/svg" xmlns:xlink="http://www.w3.org/1999/xlink">
    <title>9</title>
    <g id="9" stroke="none" stroke-width="1" fill="none" fill-rule="evenodd">
        <g>
            <path d="M99.9865571,49.9932786 C99.9865571,77.6034354 77.6034354,99.9858103 49.9932786,99.9858103 C22.3831217,99.9858103 -1.6980857e-14,77.6034354 -1.6980857e-14,49.9932786 C-1.6980857e-14,22.3823749 22.3831217,-1.6980857e-14 49.9932786,-1.6980857e-14 C77.6034354,-1.6980857e-14 99.9865571,22.3823749 99.9865571,49.9932786" id="Fill-68" fill="#46AFA5"></path>
            <path d="M77.5,21 L22.5,21 C19.4635417,21 17,23.4775391 17,26.53125 L17,63.40625 C17,66.4599609 19.4635417,68.9375 22.5,68.9375 L44.5,68.9375 L42.6666667,74.46875 L34.4166667,74.46875 C32.8927083,74.46875 31.6666667,75.7017578 31.6666667,77.234375 C31.6666667,78.7669922 32.8927083,80 34.4166667,80 L65.5833333,80 C67.1072917,80 68.3333333,78.7669922 68.3333333,77.234375 C68.3333333,75.7017578 67.1072917,74.46875 65.5833333,74.46875 L57.3333333,74.46875 L55.5,68.9375 L77.5,68.9375 C80.5364583,68.9375 83,66.4599609 83,63.40625 L83,26.53125 C83,23.4775391 80.5364583,21 77.5,21 Z M76,61 L25,61 L25,28 L76,28 L76,61 Z" id="Shape" fill="#EBEBE9" fill-rule="nonzero"></path>
        </g>
    </g>
</svg>